# xmcd CD database file
#
# Track frame offsets:
#	150
#	22102
#	45176
#	67732
#	86438
#	108502
#	131385
#	152614
#	175155
#	195468
#	217274
#	240796
#
# Disc length: 3553 seconds
#
# Revision: 30
# Processed by: cddbd v1.5.1PL2 Copyright (c) Steve Scherf et al.
# Submitted via: CDex 1.51
#
DISCID=8e0ddf0c
DTITLE=I WiSH - 伝えたい言葉 〜涙のおちる場所〜
DYEAR=2003
DGENRE=JPop
TTITLE0=明日への扉
TTITLE1=サマーブリーズにのって (Sweet Palau Mix)
TTITLE2=さよならの雨
TTITLE3=風になれっ！
TTITLE4=ふたつ星
TTITLE5=UTS−この世界の下で
TTITLE6=December
TTITLE7=Flower?
TTITLE8=クラスメイト以上・・・。
TTITLE9=☆キラキラ☆
TTITLE10=光の指す未来へ
TTITLE11=I
EXTD=YEAR: 2003
EXTT0=
EXTT1=
EXTT2=
EXTT3=
EXTT4=
EXTT5=
EXTT6=
EXTT7=
EXTT8=
EXTT9=
EXTT10=
EXTT11=
PLAYORDER=
